M48
;GenerationSoftware,Autodesk,EAGLE,9.0.0*%
;CreationDate,2019-09-03T03:29:08Z*%
FMAT,2
ICI,OFF
METRIC,TZ,000.000
T10C0.350
T9C0.800
T8C0.813
T7C1.000
T6C1.016
T5C1.100
T4C1.118
T3C1.400
T2C1.600
T1C2.007
%
G90
M71
T1
X67197Y2053
X71210Y2053
X75224Y2053
T2
X67585Y49529
X58585Y49529
X45884Y49530
X36884Y49530
T3
X36337Y73290
X76204Y73285
X71124Y73285
X66044Y73285
X95720Y40013
X105918Y73272
X100838Y73272
X95758Y73272
X46497Y73290
X41417Y73290
X105880Y34933
X100800Y34933
X95720Y34933
X105880Y40013
X100800Y40013
T4
X44350Y87130
X44350Y76970
X42950Y59170
X42950Y69330
T5
X65585Y42529
X63085Y42529
X60585Y42529
X38884Y42530
X41384Y42530
X43884Y42530
T6
X107250Y86050
X55310Y16650
X57790Y16650
X86230Y16250
X83750Y16250
X55570Y75250
X52760Y75250
X110070Y85950
T7
X53630Y53850
X53630Y46230
X61170Y39230
X76830Y31790
X76830Y39410
X79730Y31850
X79730Y39470
X82830Y39630
X58050Y31570
X85630Y39570
X85630Y31950
X49870Y46090
X58050Y39190
X82830Y32010
X42770Y30030
X68560Y63960
X71100Y66500
X73640Y63960
X74130Y39330
X74130Y31710
X71130Y39370
X35150Y30030
X49870Y53710
X35110Y33230
X42730Y33230
X71130Y31750
X100590Y30030
X108210Y30030
X66350Y86330
X73970Y86330
X61170Y31610
X71120Y90761
T8
X42590Y48200
X89680Y72960
X92220Y72960
X36320Y36380
X36320Y38920
X39820Y53280
X42360Y53280
X64320Y51580
X94809Y17226
X92269Y17226
X89729Y17226
X54410Y32870
X54410Y35410
X46790Y35410
X46790Y32870
X54410Y37950
X54410Y40490
X46790Y37950
X46790Y40490
X45370Y21220
X47910Y21220
X47910Y28840
X45370Y28840
X50450Y21220
X52990Y21220
X50450Y28840
X52990Y28840
X96060Y20800
X96060Y23340
X96060Y25880
X96060Y28420
X88440Y28420
X88440Y25880
X88440Y23340
X88440Y20800
X100170Y84750
X101440Y86655
X102710Y84750
X59360Y72080
X61900Y72080
X51308Y16681
X48768Y16681
X39230Y80820
X37630Y59920
X37630Y62460
X37430Y66220
X37430Y68760
X66530Y31320
X66530Y33860
X66430Y37420
X66430Y39960
X102420Y78040
X99880Y78040
X86360Y70670
X86360Y68130
X78530Y56050
X86150Y56050
X75930Y56050
X68310Y56050
X102860Y48670
X102860Y46130
X80840Y71580
X74950Y15090
X72410Y15090
X72410Y7470
X74950Y7470
X69870Y15090
X67330Y15090
X69870Y7470
X67330Y7470
X83380Y71580
X42420Y36400
X79980Y26890
X77440Y26890
X64740Y26890
X62200Y26890
X74900Y26890
X72360Y26890
X67280Y26890
X69820Y26890
X62200Y19270
X64740Y19270
X67280Y19270
X69820Y19270
X72360Y19270
X74900Y19270
X77440Y19270
X79980Y19270
X42420Y38940
X64460Y46220
X62230Y63580
X62230Y66120
X62230Y61040
X90560Y36550
X90560Y39090
X90560Y34010
X53900Y62640
X53900Y65180
X51360Y65180
X61920Y46220
X61780Y51580
X56410Y55500
X58950Y55500
X80980Y76660
X83520Y76660
X40050Y48200
X39230Y83360
T9
X102490Y16590
X107570Y16590
X107570Y19130
X107570Y21670
X107570Y26750
X71120Y96761
X66320Y93761
X35690Y26610
X35690Y21530
X35690Y18990
X35690Y16450
X40770Y16450
X40770Y18990
X40770Y21530
X40770Y26610
X102490Y26750
X102490Y21670
X102490Y19130
T10
X86875Y33625
X104875Y31625
X96250Y31125
X93875Y39000
X85500Y60000
X84375Y57000
X61250Y57125
X60250Y47000
X55125Y44500
X56750Y26875
X91375Y24875
X108875Y62125
X108875Y56625
X75750Y44875
X78000Y44875
X81750Y53875
X84750Y55000
X86250Y45125
X84125Y44625
X98250Y66375
X98375Y64375
X110375Y40125
X107125Y65000
X85500Y58250
X79500Y58375
X92625Y67750
X86250Y66625
X97750Y72250
X93000Y71625
X93000Y66750
X84625Y53875
X92125Y37875
X96625Y37875
X97000Y30375
X57625Y63250
X43875Y52250
X97875Y19625
X82125Y69500
X65250Y69125
X69625Y49750
X69250Y43875
X46750Y43875
X75750Y69750
X54375Y70000
X51750Y37375
X62875Y38625
X108750Y39125
X48875Y18000
X47750Y66125
X41500Y57375
X48875Y44500
X51750Y29750
X93375Y29625
X93375Y21875
X100125Y79750
X51500Y76750
X62750Y77125
X79500Y77125
X87000Y76875
X63625Y77750
X36750Y33375
X32625Y59375
X49250Y63750
X47375Y61875
X42500Y49750
X58000Y46500
X64750Y22375
X59000Y33250
X90750Y29625
X105000Y42000
X103500Y40500
X104625Y27500
X110625Y54375
X109625Y26875
X94625Y22250
X108375Y55250
X107875Y32750
X97625Y31750
X108125Y35125
X63125Y15125
X54125Y58875
X60250Y17125
X55000Y29375
X34875Y38875
X65375Y16500
X34500Y17750
X36625Y13500
X97000Y44750
X61375Y40875
X104875Y65750
X104500Y71375
X99625Y75375
X98375Y76625
X90500Y76250
X83375Y56625
X92875Y54125
X92875Y56500
X46250Y59750
X92875Y50750
X95500Y48625
X90875Y48375
X92250Y40250
X47750Y68375
X41125Y44750
X59000Y27125
X63375Y29375
X106125Y76000
X80875Y68875
X80250Y67000
X110000Y41125
X93250Y35750
X106750Y38000
X105625Y54250
X34250Y28375
X100250Y20750
X97750Y82250
X101500Y49750
X100500Y59250
X96500Y59250
X98875Y72000
X98750Y58375
X97875Y54125
X80125Y53875
X78500Y29750
X59250Y67625
X106000Y31625
X108750Y37625
X51875Y73375
X77750Y53875
X93000Y58625
X89500Y62625
X95375Y53250
X90125Y69125
X78500Y65000
X109875Y71375
X58875Y61750
X109000Y64000
X76625Y61250
X76875Y50625
X99000Y61000
X110125Y61500
X70000Y33250
X61875Y35875
X82000Y75125
X68250Y75500
X93250Y61000
X90750Y71625
X82750Y73375
X81625Y40750
X81625Y37125
X50500Y37375
X50500Y39750
X49250Y40875
X61875Y76500
X79250Y54500
X87250Y55250
X99750Y58000
X92625Y57625
X91250Y57625
X85625Y54375
X76750Y46125
X76750Y44500
X85250Y43875
X107250Y66375
X103375Y65125
X103375Y57375
X90125Y49125
X79000Y73875
X104625Y48375
X102750Y32750
X85250Y30125
X79000Y23875
X36500Y28000
X34250Y64375
X56500Y67750
X60750Y74125
X52375Y43250
X76625Y48000
X73625Y60375
X86375Y60625
X52000Y58375
X64000Y58750
X65625Y60375
X93125Y38250
X99250Y41375
X84000Y26500
X81625Y48625
X49250Y51625
X78500Y60000
X52000Y60500
X99625Y71250
X98125Y71250
X95750Y70375
X99000Y65625
X93750Y65750
X94000Y75250
X88375Y75000
X97250Y70250
X103750Y70625
X103750Y76750
X89125Y52875
X46875Y55375
X87875Y56750
X69000Y58750
X100875Y70875
X84875Y71750
X84500Y68625
X74375Y67625
X71750Y58750
X71375Y64500
X98125Y61750
X49000Y60125
X59500Y60000
X62125Y56500
X103375Y54875
X107250Y75750
X107750Y70125
X105125Y69625
X105625Y65000
X104000Y63625
X63000Y45250
X98750Y26875
X40875Y31500
X70625Y41375
X73625Y45125
X83000Y49250
X83125Y47750
X67000Y45125
X72875Y77750
X76500Y71375
X82375Y77625
X74625Y44625
X65625Y58375
X74000Y58375
X39875Y74875
X70750Y47500
X51125Y44500
X51000Y43250
X102000Y42000
X95750Y42500
X90375Y53875
X79625Y72500
X80250Y74625
X92875Y41125
X87125Y40750
X80875Y24250
X40875Y24500
X38500Y29125
X72250Y67625
X54125Y48125
X96875Y41625
X95125Y37250
X83000Y65250
X68250Y37750
X66125Y46875
X62250Y47750
X60875Y50375
X56250Y51000
X64875Y35250
X90375Y45250
X90125Y43750
X79250Y41125
X47500Y60125
X49250Y37375
X80625Y30375
X109625Y68500
X105375Y81625
X95750Y81625
X66875Y67625
X73000Y54375
X63500Y57750
X73000Y57750
X108250Y58125
X110750Y55625
X110875Y16000
X49625Y57750
X37625Y15375
X65625Y54500
X94000Y53875
X87000Y62375
X74875Y62875
X74875Y55125
X110250Y31250
X96625Y52125
X96625Y47250
X90875Y47000
X89000Y33000
X71125Y49125
X72375Y48875
X70250Y48500
X103625Y66250
X98250Y47875
X99125Y56500
X104875Y58000
X70125Y42750
X87875Y39375
X89125Y47375
X95375Y45875
X94375Y41500
X91625Y41750
X88500Y44875
X70875Y43500
X71750Y45125
X75250Y61625
X69000Y61000
X68125Y45750
X104250Y81000
X96625Y81000
X90000Y46250
X89500Y41500
X80500Y41375
X80500Y48625
X100500Y47875
X98625Y63000
X81250Y44875
X82500Y44875
X97875Y34875
M30