G04 EAGLE Gerber X2 export*
%TF.Part,Single*%
%TF.FileFunction,Profile,NP*%
%TF.FilePolarity,Positive*%
%TF.GenerationSoftware,Autodesk,EAGLE,9.0.0*%
%TF.CreationDate,2019-09-03T03:29:10Z*%
G75*
%MOMM*%
%FSLAX34Y34*%
%LPD*%
%AMOC8*
5,1,8,0,0,1.08239X$1,22.5*%
G01*
%ADD10C,0.254000*%


D10*
X305000Y120000D02*
X554000Y120000D01*
X560972Y119696D01*
X567892Y118785D01*
X574706Y117274D01*
X581362Y115175D01*
X587809Y112505D01*
X594000Y109282D01*
X599886Y105532D01*
X605423Y101284D01*
X610569Y96569D01*
X615284Y91423D01*
X619532Y85886D01*
X623282Y80000D01*
X626505Y73809D01*
X629175Y67362D01*
X631274Y60706D01*
X632785Y53892D01*
X633696Y46972D01*
X634000Y40000D01*
X634000Y-19168D01*
X789000Y-19092D01*
X789000Y47000D01*
X789285Y53537D01*
X790139Y60024D01*
X791556Y66411D01*
X793523Y72652D01*
X796027Y78696D01*
X799048Y84500D01*
X802564Y90018D01*
X806547Y95209D01*
X810967Y100033D01*
X815791Y104453D01*
X820982Y108436D01*
X826500Y111952D01*
X832304Y114973D01*
X838349Y117477D01*
X844589Y119444D01*
X850976Y120861D01*
X857463Y121715D01*
X864000Y122000D01*
X1121000Y122000D01*
X1121000Y879000D01*
X983000Y879000D01*
X932000Y795000D01*
X788000Y795000D01*
X788229Y984386D01*
X615229Y984386D01*
X615000Y778000D01*
X492000Y778000D01*
X493000Y901000D01*
X306000Y901000D01*
X305000Y120000D01*
X659199Y922609D02*
X667199Y922609D01*
X667199Y952609D01*
X659199Y952609D01*
X659199Y922609D01*
X696199Y963609D02*
X726199Y963609D01*
X726199Y971609D01*
X696199Y971609D01*
X696199Y963609D01*
X693699Y902609D02*
X728699Y902609D01*
X728699Y912609D01*
X693699Y912609D01*
X693699Y902609D01*
X577850Y484788D02*
X593850Y484788D01*
X593850Y505788D01*
X577850Y505788D01*
X577850Y484788D01*
X667850Y484788D02*
X683850Y484788D01*
X683850Y505788D01*
X667850Y505788D01*
X667850Y484788D01*
X450838Y484804D02*
X466838Y484804D01*
X466838Y505804D01*
X450838Y505804D01*
X450838Y484804D01*
X360838Y484804D02*
X376838Y484804D01*
X376838Y505804D01*
X360838Y505804D01*
X360838Y484804D01*
M02*
