G04 EAGLE Gerber X2 export*
%TF.Part,Single*%
%TF.FileFunction,Soldermask,Top,1*%
%TF.FilePolarity,Negative*%
%TF.GenerationSoftware,Autodesk,EAGLE,9.0.0*%
%TF.CreationDate,2019-09-03T03:29:10Z*%
G75*
%MOMM*%
%FSLAX34Y34*%
%LPD*%
%AMOC8*
5,1,8,0,0,1.08239X$1,22.5*%
G01*
%ADD10C,1.879600*%
%ADD11R,3.003200X3.003200*%
%ADD12R,2.743200X2.743200*%
%ADD13C,2.743200*%
%ADD14C,1.803400*%
%ADD15P,1.951982X8X22.500000*%
%ADD16P,1.951982X8X202.500000*%
%ADD17P,1.951982X8X292.500000*%
%ADD18P,1.951982X8X112.500000*%
%ADD19C,2.203200*%
%ADD20R,2.203200X2.203200*%
%ADD21C,1.524000*%
%ADD22P,2.556822X8X22.500000*%
%ADD23R,0.803200X2.403200*%
%ADD24C,1.524000*%
%ADD25P,1.649562X8X22.500000*%
%ADD26C,2.387600*%
%ADD27C,1.511200*%
%ADD28P,1.649562X8X202.500000*%
%ADD29P,1.649562X8X112.500000*%
%ADD30C,2.133600*%
%ADD31R,1.803200X2.006200*%
%ADD32R,1.503200X1.803200*%
%ADD33R,1.803200X1.503200*%
%ADD34C,3.213100*%
%ADD35P,2.556822X8X382.300000*%
%ADD36P,2.556822X8X382.400000*%
%ADD37C,0.959600*%


D10*
X655850Y425288D03*
X630850Y425288D03*
X605850Y425288D03*
D11*
X585850Y495288D03*
X675850Y495288D03*
D12*
X762043Y732854D03*
D13*
X711243Y732854D03*
X660443Y732854D03*
D14*
X593600Y720800D03*
D15*
X619000Y720800D03*
D16*
X1024200Y780400D03*
X998800Y780400D03*
D17*
X863600Y706700D03*
X863600Y681300D03*
X1028600Y486700D03*
X1028600Y461300D03*
D14*
X808400Y715800D03*
D15*
X833800Y715800D03*
D14*
X424200Y364000D03*
D18*
X424200Y389400D03*
D14*
X644600Y462200D03*
D16*
X619200Y462200D03*
D14*
X617800Y515800D03*
D15*
X643200Y515800D03*
D14*
X564100Y555000D03*
D15*
X589500Y555000D03*
X809800Y766600D03*
X835200Y766600D03*
D14*
X400500Y482000D03*
D15*
X425900Y482000D03*
X896800Y729600D03*
X922200Y729600D03*
D14*
X363200Y363800D03*
D18*
X363200Y389200D03*
D14*
X398200Y532800D03*
D15*
X423600Y532800D03*
D19*
X580500Y315700D03*
D20*
X580500Y391900D03*
D19*
X427700Y300300D03*
D20*
X351500Y300300D03*
D10*
X429500Y693300D03*
X429500Y591700D03*
D19*
X768300Y317900D03*
D20*
X768300Y394100D03*
D19*
X797300Y318500D03*
D20*
X797300Y394700D03*
D19*
X828300Y396300D03*
D20*
X828300Y320100D03*
D19*
X856300Y395700D03*
D20*
X856300Y319500D03*
D19*
X498700Y460900D03*
D20*
X498700Y537100D03*
D19*
X536300Y538500D03*
D20*
X536300Y462300D03*
D19*
X611700Y392300D03*
D20*
X611700Y316100D03*
D19*
X739700Y863300D03*
D20*
X663500Y863300D03*
D19*
X1082100Y300300D03*
D20*
X1005900Y300300D03*
D19*
X711300Y317500D03*
D20*
X711300Y393700D03*
D10*
X443500Y871300D03*
X443500Y769700D03*
D19*
X741300Y317100D03*
D20*
X741300Y393300D03*
D19*
X427300Y332300D03*
D20*
X351100Y332300D03*
D12*
X1058805Y349330D03*
D13*
X1008005Y349330D03*
X957205Y349330D03*
D12*
X1058805Y400130D03*
D13*
X1008005Y400130D03*
X957205Y400130D03*
D12*
X1059183Y732724D03*
D13*
X1008383Y732724D03*
X957583Y732724D03*
D21*
X948092Y178864D02*
X948092Y165656D01*
X922692Y165656D02*
X922692Y178864D01*
X897292Y178864D02*
X897292Y165656D01*
D22*
X555700Y752500D03*
X1072500Y860500D03*
D23*
X742550Y520700D03*
X742550Y468700D03*
X755250Y520700D03*
X729850Y520700D03*
X717150Y520700D03*
X755250Y468700D03*
X729850Y468700D03*
X717150Y468700D03*
D21*
X550704Y328700D02*
X537496Y328700D01*
X537496Y354100D02*
X550704Y354100D01*
X474504Y354100D02*
X461296Y354100D01*
X461296Y328700D02*
X474504Y328700D01*
X537496Y379500D02*
X550704Y379500D01*
X550704Y404900D02*
X537496Y404900D01*
X474504Y379500D02*
X461296Y379500D01*
X461296Y404900D02*
X474504Y404900D01*
D24*
X453700Y212200D03*
X479100Y212200D03*
X479100Y288400D03*
X453700Y288400D03*
X504500Y212200D03*
X529900Y212200D03*
X504500Y288400D03*
X529900Y288400D03*
D21*
X953996Y208000D02*
X967204Y208000D01*
X967204Y233400D02*
X953996Y233400D01*
X953996Y258800D02*
X967204Y258800D01*
X967204Y284200D02*
X953996Y284200D01*
X891004Y284200D02*
X877796Y284200D01*
X877796Y258800D02*
X891004Y258800D01*
X891004Y233400D02*
X877796Y233400D01*
X877796Y208000D02*
X891004Y208000D01*
D25*
X1001700Y847500D03*
X1014400Y866550D03*
X1027100Y847500D03*
D23*
X803350Y520700D03*
X803350Y468700D03*
X816050Y520700D03*
X790650Y520700D03*
X777950Y520700D03*
X816050Y468700D03*
X790650Y468700D03*
X777950Y468700D03*
X868950Y520700D03*
X868950Y468700D03*
X881650Y520700D03*
X856250Y520700D03*
X843550Y520700D03*
X881650Y468700D03*
X856250Y468700D03*
X843550Y468700D03*
D22*
X527600Y752500D03*
D26*
X663199Y926687D02*
X663199Y948531D01*
X700277Y967609D02*
X722121Y967609D01*
X722121Y907609D02*
X700277Y907609D01*
D27*
X363440Y266100D02*
X350360Y266100D01*
X350360Y215300D02*
X363440Y215300D01*
X363440Y189900D02*
X350360Y189900D01*
X350360Y164500D02*
X363440Y164500D01*
X401160Y164500D02*
X414240Y164500D01*
X414240Y189900D02*
X401160Y189900D01*
X401160Y215300D02*
X414240Y215300D01*
X414240Y266100D02*
X401160Y266100D01*
X1018360Y267500D02*
X1031440Y267500D01*
X1031440Y216700D02*
X1018360Y216700D01*
X1018360Y191300D02*
X1031440Y191300D01*
X1031440Y165900D02*
X1018360Y165900D01*
X1069160Y165900D02*
X1082240Y165900D01*
X1082240Y191300D02*
X1069160Y191300D01*
X1069160Y216700D02*
X1082240Y216700D01*
X1082240Y267500D02*
X1069160Y267500D01*
D28*
X513082Y166809D03*
X487682Y166809D03*
D29*
X392300Y808200D03*
X392300Y833600D03*
X376300Y599200D03*
X376300Y624600D03*
X374300Y662200D03*
X374300Y687600D03*
X665300Y313200D03*
X665300Y338600D03*
X664300Y374200D03*
X664300Y399600D03*
D22*
X1100700Y859500D03*
D30*
X685600Y639600D03*
X711000Y665000D03*
X736400Y639600D03*
D31*
X1095220Y432700D03*
X1066780Y432700D03*
D32*
X941200Y492800D03*
X922200Y492800D03*
D31*
X1090420Y478700D03*
X1061980Y478700D03*
D25*
X785300Y560500D03*
X861500Y560500D03*
D28*
X759300Y560500D03*
X683100Y560500D03*
D32*
X1053400Y778700D03*
X1072400Y778700D03*
X1001000Y676200D03*
X1020000Y676200D03*
X949900Y782700D03*
X968900Y782700D03*
X967800Y640800D03*
X948800Y640800D03*
X894900Y557700D03*
X913900Y557700D03*
X1007200Y430800D03*
X988200Y430800D03*
X1056000Y678200D03*
X1075000Y678200D03*
X1057200Y635200D03*
X1076200Y635200D03*
X921400Y524200D03*
X940400Y524200D03*
D33*
X1098200Y798400D03*
X1098200Y779400D03*
D32*
X1077200Y596800D03*
X1058200Y596800D03*
X999000Y461800D03*
X980000Y461800D03*
X1069900Y557300D03*
X1050900Y557300D03*
X894300Y596700D03*
X913300Y596700D03*
X894500Y641700D03*
X913500Y641700D03*
X939300Y432300D03*
X920300Y432300D03*
X921700Y464700D03*
X940700Y464700D03*
X893900Y674700D03*
X912900Y674700D03*
X948100Y675700D03*
X967100Y675700D03*
X912500Y310700D03*
X931500Y310700D03*
X1006300Y521300D03*
X987300Y521300D03*
D31*
X1095620Y523700D03*
X1067180Y523700D03*
D32*
X999100Y493300D03*
X980100Y493300D03*
X1001500Y637700D03*
X1020500Y637700D03*
D34*
X752237Y35575D02*
X752237Y5476D01*
X712105Y5476D02*
X712105Y35575D01*
X671973Y35575D02*
X671973Y5476D01*
D21*
X749500Y144296D02*
X749500Y157504D01*
X724100Y157504D02*
X724100Y144296D01*
X724100Y81304D02*
X724100Y68096D01*
X749500Y68096D02*
X749500Y81304D01*
X698700Y144296D02*
X698700Y157504D01*
X673300Y157504D02*
X673300Y144296D01*
X698700Y81304D02*
X698700Y68096D01*
X673300Y68096D02*
X673300Y81304D01*
D22*
X553100Y166500D03*
D35*
X837500Y162500D03*
D21*
X799800Y262296D02*
X799800Y275504D01*
X774400Y275504D02*
X774400Y262296D01*
X647400Y262296D02*
X647400Y275504D01*
X622000Y275504D02*
X622000Y262296D01*
X749000Y262296D02*
X749000Y275504D01*
X723600Y275504D02*
X723600Y262296D01*
X672800Y262296D02*
X672800Y275504D01*
X698200Y275504D02*
X698200Y262296D01*
X622000Y199304D02*
X622000Y186096D01*
X647400Y186096D02*
X647400Y199304D01*
X672800Y199304D02*
X672800Y186096D01*
X698200Y186096D02*
X698200Y199304D01*
X723600Y199304D02*
X723600Y186096D01*
X749000Y186096D02*
X749000Y199304D01*
X774400Y199304D02*
X774400Y186096D01*
X799800Y186096D02*
X799800Y199304D01*
D36*
X577900Y166500D03*
D22*
X862300Y162500D03*
D21*
X628904Y635800D02*
X615696Y635800D01*
X615696Y661200D02*
X628904Y661200D01*
X628904Y610400D02*
X615696Y610400D01*
X898996Y365500D02*
X912204Y365500D01*
X912204Y390900D02*
X898996Y390900D01*
X898996Y340100D02*
X912204Y340100D01*
D29*
X539000Y626400D03*
X539000Y651800D03*
X513600Y651800D03*
D10*
X438838Y425304D03*
X413838Y425304D03*
X388838Y425304D03*
D11*
X368838Y495304D03*
X458838Y495304D03*
D12*
X464975Y732897D03*
D13*
X414175Y732897D03*
X363375Y732897D03*
D37*
X987500Y583750D03*
X978750Y541250D03*
X801250Y538750D03*
X785000Y297500D03*
X1060000Y316250D03*
X1087500Y376250D03*
X518750Y733750D03*
X777500Y538750D03*
X930000Y586250D03*
X895000Y626250D03*
X953750Y532500D03*
X901250Y691250D03*
X785000Y650000D03*
X1098750Y713750D03*
X588750Y617500D03*
X1090000Y640000D03*
X766250Y612500D03*
X768750Y506250D03*
X990000Y610000D03*
X1101250Y615000D03*
X700000Y332500D03*
X618750Y358750D03*
X820000Y751250D03*
X682500Y755000D03*
X932500Y610000D03*
X907500Y716250D03*
X827500Y733750D03*
X816250Y407500D03*
X816250Y371250D03*
X505000Y373750D03*
X505000Y397500D03*
X492500Y408750D03*
X618750Y765000D03*
X792500Y545000D03*
X872500Y552500D03*
X997500Y580000D03*
X926250Y576250D03*
X912500Y576250D03*
X856250Y543750D03*
X767500Y461250D03*
X767500Y445000D03*
X852500Y438750D03*
X1072500Y663750D03*
X1033750Y651250D03*
X1033750Y573750D03*
X901250Y491250D03*
X790000Y738750D03*
X1046250Y483750D03*
X1027500Y327500D03*
X852500Y301250D03*
X790000Y238750D03*
X365000Y280000D03*
X342500Y643750D03*
X565000Y677500D03*
X607500Y741250D03*
X523750Y432500D03*
X766250Y480000D03*
X736250Y603750D03*
X863750Y606250D03*
X520000Y583750D03*
X640000Y587500D03*
X656250Y603750D03*
X931250Y382500D03*
X992500Y413750D03*
X367500Y333750D03*
X840000Y265000D03*
X816250Y486250D03*
X492500Y516250D03*
X785000Y600000D03*
X520000Y605000D03*
X996250Y712500D03*
X981250Y712500D03*
X957500Y703750D03*
X990000Y656250D03*
X937500Y657500D03*
X940000Y752500D03*
X883750Y750000D03*
X972500Y702500D03*
X1037500Y706250D03*
X1037500Y767500D03*
X891250Y528750D03*
X468750Y553750D03*
X878750Y567500D03*
X690000Y587500D03*
X1008750Y708750D03*
X848750Y717500D03*
X845000Y686250D03*
X743750Y676250D03*
X717500Y587500D03*
X713750Y645000D03*
X981250Y617500D03*
X490000Y601250D03*
X595000Y600000D03*
X621250Y565000D03*
X1033750Y548750D03*
X1072500Y757500D03*
X1077500Y701250D03*
X1051250Y696250D03*
X1056250Y650000D03*
X1040000Y636250D03*
X630000Y452500D03*
X987500Y268750D03*
X408750Y315000D03*
X706250Y413750D03*
X736250Y451250D03*
X830000Y492500D03*
X831250Y477500D03*
X670000Y451250D03*
X728750Y777500D03*
X765000Y713750D03*
X823750Y776250D03*
X746250Y446250D03*
X656250Y583750D03*
X740000Y583750D03*
X398750Y748750D03*
X707500Y475000D03*
X511250Y445000D03*
X510000Y432500D03*
X1020000Y420000D03*
X957500Y425000D03*
X903750Y538750D03*
X796250Y725000D03*
X802500Y746250D03*
X928750Y411250D03*
X871250Y407500D03*
X808750Y242500D03*
X408750Y245000D03*
X385000Y291250D03*
X722500Y676250D03*
X541250Y481250D03*
X968750Y416250D03*
X951250Y372500D03*
X682500Y377500D03*
X661250Y468750D03*
X622500Y477500D03*
X608750Y503750D03*
X562500Y510000D03*
X648750Y352500D03*
X903750Y452500D03*
X901250Y437500D03*
X792500Y411250D03*
X475000Y601250D03*
X492500Y373750D03*
X806250Y303750D03*
X1096250Y685000D03*
X1053750Y816250D03*
X957500Y816250D03*
X668750Y676250D03*
X730000Y543750D03*
X635000Y577500D03*
X730000Y577500D03*
X1082500Y581250D03*
X1107500Y556250D03*
X1108750Y160000D03*
X496250Y577500D03*
X376250Y153750D03*
X656250Y545000D03*
X940000Y538750D03*
X870000Y623750D03*
X748750Y628750D03*
X748750Y551250D03*
X1102500Y312500D03*
X966250Y521250D03*
X966250Y472500D03*
X908750Y470000D03*
X890000Y330000D03*
X711250Y491250D03*
X723750Y488750D03*
X702500Y485000D03*
X1036250Y662500D03*
X982500Y478750D03*
X991250Y565000D03*
X1048750Y580000D03*
X701250Y427500D03*
X878750Y393750D03*
X891250Y473750D03*
X953750Y458750D03*
X943750Y415000D03*
X916250Y417500D03*
X885000Y448750D03*
X708750Y435000D03*
X717500Y451250D03*
X752500Y616250D03*
X690000Y610000D03*
X681250Y457500D03*
X1042500Y810000D03*
X966250Y810000D03*
X900000Y462500D03*
X895000Y415000D03*
X805000Y413750D03*
X805000Y486250D03*
X1005000Y478750D03*
X986250Y630000D03*
X830000Y652500D03*
X812500Y448750D03*
X825000Y448750D03*
X978750Y348750D03*
X868750Y336250D03*
X1048750Y316250D03*
X962500Y311250D03*
X938750Y390000D03*
X855000Y600000D03*
X843750Y570000D03*
X612500Y571250D03*
X602500Y470000D03*
X551250Y445000D03*
X567500Y268750D03*
X913750Y248750D03*
X1088750Y621250D03*
X1088750Y566250D03*
X757500Y448750D03*
X780000Y448750D03*
X817500Y538750D03*
X847500Y550000D03*
X862500Y451250D03*
X841250Y446250D03*
X982500Y663750D03*
X983750Y643750D03*
X1103750Y401250D03*
X1071250Y650000D03*
X855000Y582500D03*
X795000Y583750D03*
X926250Y677500D03*
X862500Y666250D03*
X977500Y722500D03*
X930000Y716250D03*
X930000Y667500D03*
X846250Y538750D03*
X921250Y378750D03*
X966250Y378750D03*
X970000Y303750D03*
X576250Y632500D03*
X438750Y522500D03*
X978750Y196250D03*
X821250Y695000D03*
X652500Y691250D03*
X696250Y497500D03*
X692500Y438750D03*
X467500Y438750D03*
X757500Y697500D03*
X543750Y700000D03*
X517500Y373750D03*
X628750Y386250D03*
X1087500Y391250D03*
X488750Y180000D03*
X477500Y661250D03*
X415000Y573750D03*
X488750Y445000D03*
X517500Y297500D03*
X933750Y296250D03*
X933750Y218750D03*
X1001250Y797500D03*
X515000Y767500D03*
X627500Y771250D03*
X795000Y771250D03*
X870000Y768750D03*
X636250Y777500D03*
X592500Y676250D03*
X326250Y593750D03*
X492500Y637500D03*
X473750Y618750D03*
X425000Y497500D03*
X580000Y465000D03*
X647500Y223750D03*
X590000Y332500D03*
X907500Y296250D03*
X1050000Y420000D03*
X1035000Y405000D03*
X1046250Y275000D03*
X1106250Y543750D03*
X1096250Y268750D03*
X946250Y222500D03*
X1083750Y552500D03*
X1078750Y327500D03*
X976250Y317500D03*
X1081250Y351250D03*
X631250Y151250D03*
X541250Y588750D03*
X602500Y171250D03*
X550000Y293750D03*
X348750Y388750D03*
X653750Y165000D03*
X345000Y177500D03*
X366250Y135000D03*
X970000Y447500D03*
X613750Y408750D03*
X1048750Y657500D03*
X1045000Y713750D03*
X996250Y753750D03*
X983750Y766250D03*
X905000Y762500D03*
X833750Y566250D03*
X928750Y541250D03*
X928750Y565000D03*
X462500Y597500D03*
X928750Y507500D03*
X955000Y486250D03*
X908750Y483750D03*
X922500Y402500D03*
X477500Y683750D03*
X411250Y447500D03*
X590000Y271250D03*
X633750Y293750D03*
X1061250Y760000D03*
X808750Y688750D03*
X802500Y670000D03*
X1100000Y411250D03*
X932500Y357500D03*
X1067500Y380000D03*
X1056250Y542500D03*
X342500Y283750D03*
X1002500Y207500D03*
X977500Y822500D03*
X1015000Y497500D03*
X1005000Y592500D03*
X965000Y592500D03*
X988750Y720000D03*
M02*
