G04 EAGLE Gerber X2 export*
%TF.Part,Single*%
%TF.FileFunction,Paste,Top*%
%TF.FilePolarity,Positive*%
%TF.GenerationSoftware,Autodesk,EAGLE,9.0.0*%
%TF.CreationDate,2019-09-03T03:29:10Z*%
G75*
%MOMM*%
%FSLAX34Y34*%
%LPD*%
%AMOC8*
5,1,8,0,0,1.08239X$1,22.5*%
G01*
%ADD10R,0.600000X2.200000*%
%ADD11R,1.600000X1.803000*%
%ADD12R,1.300000X1.600000*%
%ADD13R,1.600000X1.300000*%


D10*
X742550Y520700D03*
X742550Y468700D03*
X755250Y520700D03*
X729850Y520700D03*
X717150Y520700D03*
X755250Y468700D03*
X729850Y468700D03*
X717150Y468700D03*
X803350Y520700D03*
X803350Y468700D03*
X816050Y520700D03*
X790650Y520700D03*
X777950Y520700D03*
X816050Y468700D03*
X790650Y468700D03*
X777950Y468700D03*
X868950Y520700D03*
X868950Y468700D03*
X881650Y520700D03*
X856250Y520700D03*
X843550Y520700D03*
X881650Y468700D03*
X856250Y468700D03*
X843550Y468700D03*
D11*
X1095220Y432700D03*
X1066780Y432700D03*
D12*
X941200Y492800D03*
X922200Y492800D03*
D11*
X1090420Y478700D03*
X1061980Y478700D03*
D12*
X1053400Y778700D03*
X1072400Y778700D03*
X1001000Y676200D03*
X1020000Y676200D03*
X949900Y782700D03*
X968900Y782700D03*
X967800Y640800D03*
X948800Y640800D03*
X894900Y557700D03*
X913900Y557700D03*
X1007200Y430800D03*
X988200Y430800D03*
X1056000Y678200D03*
X1075000Y678200D03*
X1057200Y635200D03*
X1076200Y635200D03*
X921400Y524200D03*
X940400Y524200D03*
D13*
X1098200Y798400D03*
X1098200Y779400D03*
D12*
X1077200Y596800D03*
X1058200Y596800D03*
X999000Y461800D03*
X980000Y461800D03*
X1069900Y557300D03*
X1050900Y557300D03*
X894300Y596700D03*
X913300Y596700D03*
X894500Y641700D03*
X913500Y641700D03*
X939300Y432300D03*
X920300Y432300D03*
X921700Y464700D03*
X940700Y464700D03*
X893900Y674700D03*
X912900Y674700D03*
X948100Y675700D03*
X967100Y675700D03*
X912500Y310700D03*
X931500Y310700D03*
X1006300Y521300D03*
X987300Y521300D03*
D11*
X1095620Y523700D03*
X1067180Y523700D03*
D12*
X999100Y493300D03*
X980100Y493300D03*
X1001500Y637700D03*
X1020500Y637700D03*
M02*
