G04 EAGLE Gerber X2 export*
%TF.Part,Single*%
%TF.FileFunction,Paste,Bot*%
%TF.FilePolarity,Positive*%
%TF.GenerationSoftware,Autodesk,EAGLE,9.0.0*%
%TF.CreationDate,2019-09-03T03:29:10Z*%
G75*
%MOMM*%
%FSLAX34Y34*%
%LPD*%
%AMOC8*
5,1,8,0,0,1.08239X$1,22.5*%
G01*
%ADD10R,1.300000X1.500000*%
%ADD11R,2.200000X1.400000*%
%ADD12R,1.400000X2.200000*%
%ADD13R,1.600000X1.800000*%
%ADD14R,1.500000X1.300000*%
%ADD15R,1.300000X1.600000*%


D10*
X783200Y430200D03*
X764200Y430200D03*
X481700Y568200D03*
X462700Y568200D03*
X741700Y431200D03*
X722700Y431200D03*
D11*
X774700Y636400D03*
X806700Y636400D03*
D12*
X785400Y513800D03*
X785400Y481800D03*
D13*
X810400Y591300D03*
X838400Y591300D03*
D10*
X730200Y561200D03*
X711200Y561200D03*
X999800Y816800D03*
X1018800Y816800D03*
X634600Y563300D03*
X653600Y563300D03*
X1072700Y779200D03*
X1053700Y779200D03*
D13*
X806200Y430300D03*
X834200Y430300D03*
D10*
X983800Y374800D03*
X1002800Y374800D03*
D14*
X712200Y363300D03*
X712200Y344300D03*
D10*
X959300Y561800D03*
X978300Y561800D03*
D11*
X869300Y637600D03*
X837300Y637600D03*
X1063800Y241600D03*
X1031800Y241600D03*
D10*
X509800Y496800D03*
X528800Y496800D03*
D11*
X967700Y152400D03*
X999700Y152400D03*
D10*
X853300Y493800D03*
X872300Y493800D03*
X768300Y675800D03*
X787300Y675800D03*
D15*
X1014000Y514700D03*
X995000Y514700D03*
X866000Y428800D03*
X885000Y428800D03*
X1027200Y687200D03*
X1008200Y687200D03*
X1022400Y609200D03*
X1003400Y609200D03*
X968600Y607200D03*
X949600Y607200D03*
X972800Y687200D03*
X953800Y687200D03*
X1082600Y684700D03*
X1063600Y684700D03*
X1069200Y516700D03*
X1050200Y516700D03*
X752400Y515700D03*
X733400Y515700D03*
X358800Y768800D03*
X377800Y768800D03*
X937600Y443800D03*
X956600Y443800D03*
X962600Y506200D03*
X943600Y506200D03*
X840400Y463700D03*
X821400Y463700D03*
X752400Y474200D03*
X733400Y474200D03*
X1076900Y608700D03*
X1057900Y608700D03*
X507600Y262300D03*
X526600Y262300D03*
X1006800Y442700D03*
X987800Y442700D03*
X915700Y611200D03*
X896700Y611200D03*
X839900Y515700D03*
X820900Y515700D03*
X1054200Y301200D03*
X1035200Y301200D03*
X493700Y622300D03*
X512700Y622300D03*
X1072600Y440200D03*
X1053600Y440200D03*
X915100Y506700D03*
X896100Y506700D03*
X456300Y167700D03*
X437300Y167700D03*
M02*
